<svg width="41" height="41" viewBox="0 0 41 41" fill="none" xmlns="http://www.w3.org/2000/svg">
<g clip-path="url(#clip0_1_61)">
<path opacity="0.15" fill-rule="evenodd" clip-rule="evenodd" d="M12.6051 1.70068C11.5005 1.70068 10.6051 2.59611 10.6051 3.70068V37.7007C10.6051 38.8053 11.5005 39.7007 12.6051 39.7007H28.5051C29.6097 39.7007 30.5051 38.8053 30.5051 37.7007V3.70068C30.5051 2.59611 29.6097 1.70068 28.5051 1.70068H25.2682V2.70068H15.8419V1.70068H12.6051Z" fill="url(#paint0_linear_1_61)"/>
<path d="M18.1136 36.3752C17.7401 36.3752 17.4373 36.678 17.4373 37.0515C17.4373 37.425 17.7401 37.7278 18.1136 37.7278V36.3752ZM23.0684 37.7278C23.4419 37.7278 23.7447 37.425 23.7447 37.0515C23.7447 36.678 23.4419 36.3752 23.0684 36.3752V37.7278ZM10.0051 30.1148C10.0051 30.4883 10.3079 30.7911 10.6815 30.7911C11.055 30.7911 11.3578 30.4883 11.3578 30.1148H10.0051ZM11.3578 33.0877C11.3578 32.7141 11.055 32.4113 10.6815 32.4113C10.3079 32.4113 10.0051 32.7141 10.0051 33.0877H11.3578ZM29.8243 8.31371C29.8243 8.68724 30.1271 8.99004 30.5006 8.99004C30.8741 8.99004 31.1769 8.68724 31.1769 8.31371H29.8243ZM31.1769 11.2866C31.1769 10.9131 30.8741 10.6102 30.5006 10.6102C30.1271 10.6102 29.8243 10.9131 29.8243 11.2866H31.1769ZM28.0851 39.348H13.0969V40.7007H28.0851V39.348ZM13.0969 2.05334H16.1317V0.700684H13.0969V2.05334ZM15.4554 2.39274H16.8081V1.37701H15.4554V2.39274ZM17.0979 4.03525H24.0842V2.68259H17.0979V4.03525ZM16.1317 2.05334H25.0503V0.700684H16.1317V2.05334ZM25.0503 2.05334H28.0851V0.700684H25.0503V2.05334ZM25.7267 2.39274V1.37701H24.374V2.39274H25.7267ZM18.1136 37.7278H23.0684V36.3752H18.1136V37.7278ZM11.3578 30.1148V3.79247H10.0051V30.1148H11.3578ZM11.3578 37.6089V33.0877H10.0051V37.6089H11.3578ZM29.8243 3.79247V8.31371H31.1769V3.79247H29.8243ZM29.8243 11.2866V37.6089H31.1769V11.2866H29.8243ZM24.0842 4.03525C24.9913 4.03525 25.7267 3.29988 25.7267 2.39274H24.374C24.374 2.55282 24.2443 2.68259 24.0842 2.68259V4.03525ZM13.0969 39.348C12.1364 39.348 11.3578 38.5694 11.3578 37.6089H10.0051C10.0051 39.3164 11.3894 40.7007 13.0969 40.7007V39.348ZM28.0851 40.7007C29.7927 40.7007 31.1769 39.3164 31.1769 37.6089H29.8243C29.8243 38.5694 29.0456 39.348 28.0851 39.348V40.7007ZM28.0851 2.05334C29.0456 2.05334 29.8243 2.83197 29.8243 3.79247H31.1769C31.1769 2.08492 29.7927 0.700684 28.0851 0.700684V2.05334ZM15.4554 2.39274C15.4554 3.29988 16.1908 4.03525 17.0979 4.03525V2.68259C16.9378 2.68259 16.8081 2.55282 16.8081 2.39274H15.4554ZM13.0969 0.700684C11.3894 0.700684 10.0051 2.08492 10.0051 3.79247H11.3578C11.3578 2.83197 12.1364 2.05334 13.0969 2.05334V0.700684Z" fill="url(#paint1_linear_1_61)"/>
</g>
<defs>
<linearGradient id="paint0_linear_1_61" x1="11.7328" y1="1.70068" x2="40.3069" y2="18.2244" gradientUnits="userSpaceOnUse">
<stop offset="0.259336" stop-color="#FFDB6E"/>
<stop offset="1" stop-color="#FFBC5E"/>
</linearGradient>
<linearGradient id="paint1_linear_1_61" x1="11.2049" y1="0.700684" x2="41.4419" y2="18.3734" gradientUnits="userSpaceOnUse">
<stop offset="0.259336" stop-color="#FFDB6E"/>
<stop offset="1" stop-color="#FFBC5E"/>
</linearGradient>
<clipPath id="clip0_1_61">
<rect width="40" height="40" fill="white" transform="translate(0.605103 0.700684)"/>
</clipPath>
</defs>
</svg>
